<svg xmlns="http://www.w3.org/2000/svg" width="100.078" height="22.482" viewBox="0 0 2613 587">
  <defs>
    <style>
      .cls-1 {
        fill: #303030;
      }

      .cls-1, .cls-2 {
        fill-rule: evenodd;
      }

      .cls-2 {
        fill: #d82a2a;
      }
    </style>
  </defs>
  <path id="STUDIO" class="cls-1" d="M1885.5,527.945q18.2,0,30.85-5.536t18.89-14.829a36.481,36.481,0,0,0,6.23-20.761q0-13.445-7.02-21.355a43.39,43.39,0,0,0-16.91-11.764,187.467,187.467,0,0,0-25.32-7.415q-11.28-2.766-17.8-4.943a30.658,30.658,0,0,1-10.78-5.932,12.312,12.312,0,0,1-4.25-9.688q0-8.5,7.41-13.643,7.425-5.139,22.65-5.141a71.16,71.16,0,0,1,19.19,2.768,80.025,80.025,0,0,1,18.98,8.107l8.11-19.97a68.9,68.9,0,0,0-21.16-9.1,99.475,99.475,0,0,0-24.92-3.163q-18.2,0-30.76,5.536t-18.79,14.928a36.957,36.957,0,0,0-6.23,20.86q0,13.642,7.02,21.651a42.132,42.132,0,0,0,16.82,11.765,206.525,206.525,0,0,0,25.61,7.513q11.28,2.772,17.8,4.943a29.934,29.934,0,0,1,10.78,6.031,12.648,12.648,0,0,1,4.25,9.787q0,8.11-7.61,13.05t-23.04,4.943a75.871,75.871,0,0,1-24.83-4.251,69.922,69.922,0,0,1-20.86-10.974l-8.9,19.971q8.7,7.516,23.63,12.061a105.7,105.7,0,0,0,30.96,4.547h0Zm97.7-1.977h25.72V409.311h45.88v-21.75H1937.32v21.75h45.88V525.968Zm138.06,1.977q28.68,0,44.6-16.114t15.92-46.169v-78.1h-25.31v77.113q0,40.734-35.01,40.731-35.205,0-35.21-40.731V387.561h-25.71v78.1q0,30.057,16.02,46.169t44.7,16.114h0Zm86.63-1.977h60.52q22.155,0,39.36-8.6a63.652,63.652,0,0,0,26.71-24.32q9.48-15.719,9.49-36.282t-9.49-36.283a63.652,63.652,0,0,0-26.71-24.32q-17.2-8.6-39.36-8.6h-60.52V525.968Zm25.71-21.75V409.311h33.63q15.225,0,26.8,5.833a41.8,41.8,0,0,1,17.8,16.608q6.225,10.779,6.23,25.013t-6.23,25.012a41.773,41.773,0,0,1-17.8,16.609q-11.58,5.833-26.8,5.832H2233.6Zm127.77,21.75h25.71V387.561h-25.71V525.968Zm117.88,1.977q21.165,0,38.17-9.194a68.39,68.39,0,0,0,26.71-25.407q9.69-16.211,9.69-36.579t-9.69-36.58a68.418,68.418,0,0,0-26.71-25.407q-17.01-9.195-38.17-9.194t-38.17,9.194a68.083,68.083,0,0,0-26.7,25.506,73.515,73.515,0,0,0,0,72.961,68.083,68.083,0,0,0,26.7,25.506q17.01,9.195,38.17,9.194h0Zm0-22.54a49.933,49.933,0,0,1-24.92-6.229,45.025,45.025,0,0,1-17.41-17.4,52.656,52.656,0,0,1,0-50.025,45.045,45.045,0,0,1,17.41-17.4,52.963,52.963,0,0,1,49.84,0,45.045,45.045,0,0,1,17.41,17.4,52.582,52.582,0,0,1,0,50.025,45.025,45.025,0,0,1-17.41,17.4,49.933,49.933,0,0,1-24.92,6.229h0Z"/>
  <path id="Text_gray" data-name="Text gray" class="cls-1" d="M1832.13,161.959V344.234h148.3l26.74-29.164H1861.31V161.959h-29.18Zm233.39,0V341.8h29.18V161.959h-29.18Zm77.8,0V341.8h29.17v-136.1l121.56,138.529h31.6V161.959h-29.17V302.918L2177.35,161.959h-34.03Zm235.82,0h175.04l-26.75,29.164H2379.14V161.959Zm0,75.34V344.234h148.29l26.75-29.164H2408.31V266.463h119.12l26.75-29.164H2379.14Z"/>
  <path id="Text_red" data-name="Text red" class="cls-2" d="M716.251,161.959H541.21v104.5h87.521V237.3H570.384V191.123H687.078Zm-21.88,75.34h29.173V344.234H548.5l29.173-29.164H694.371V237.3Zm53.485-75.34H930.19V344.234h-70.5l36.467,36.455H859.687L823.22,344.234H747.856V161.959Zm29.173,29.164H901.016V315.07H777.029V191.123Zm187.2-29.164V344.234H1146.56V161.959h-29.17V315.07H993.4V161.959H964.225Zm218.8,182.275,72.93-182.275h34.03l70.51,182.275h-34.04l-53.48-140.959-55.92,140.959h-34.03Zm213.93,0V161.959H1579.3v104.5h-72.94l70.51,77.771h-38.9L1445.59,237.3h104.53V191.123H1426.14V344.234h-29.18Zm216.37-182.275h175.04l-29.17,29.164H1613.33V161.959Zm0,75.34h175.04l-26.74,29.164H1642.51V315.07h145.86l-26.74,29.164h-148.3V237.3Z"/>
  <path id="Logo_gray" data-name="Logo gray" class="cls-1" d="M431.81,232.439l-184.765,184.7L62.28,232.439v48.606L247.045,465.75l184.765-184.7V232.439Z"/>
  <path id="Logo_red" data-name="Logo red" class="cls-2" d="M244.614,47.734L98.747,193.553l82.658,82.631,75.365-75.34-21.88-21.873-51.054,51.037-38.9-36.455L244.614,96.34V47.734Zm63.209,58.327-24.311,24.3,63.209,63.188-97.245,97.213v48.607l145.867-145.82Z"/>
</svg>
